# xmcd
#
# Track frame offsets: 
#        150
#        10477
#        21059
#        37380
#        48301
#        59218
#        69783
#        80689
#        91921
#        104908
#        115512
#        125900
#        136023
#        146608
#        154959
#        166711
#        176747
#        185876
#        196338
#        206190
#        216413
#        229286
#        240038
#        249215
#
# Disc length: 3460 seconds
#
# Revision: 0
# Processed by: cddbd v1.5.2PL0 Copyright (c) Steve Scherf et al.
# Submitted via: ExactAudioCopy v0.99pb5
#
DISCID=630d8218
DTITLE=Various Artist - Ace Story (Volume Two)
DYEAR=2010
DGENRE=R&B
TTITLE0=Junior Gordon - Blow Wind Blow
TTITLE1=Lightnin' Hopkins - Bad Boogie
TTITLE2=Mercy Baby - Silly Dilly Woman
TTITLE3=Frankie Ford - Roberta
TTITLE4=Eddie Bo - I Love To Rock and Roll
TTITLE5=Bobby Marchan - Rockin' Behind The Iron Curtain
TTITLE6=Blue Dots - Please Don't Tell 'em
TTITLE7=Gene and Al's Spacemen - Mercy
TTITLE8=Little Shelton - Sea Cruise
TTITLE9=Joe Dyson - Looped (vocal Johnny Collins)
TTITLE10=Charles Brown and Amos Milburn - Educated Fool
TTITLE11=Jimmy Clanton - Go, Jimmy, Go
TTITLE12=Huey "Piano" Smith and His Clowns - Would You Believe It (I Hav
TTITLE12=e A Cold)
TTITLE13=Little Booker - Teen Age Rock
TTITLE14=Sammy Myers - Sleeping In The Ground
TTITLE15=Frankie Lee Sims - My Talk Didn't Do Any Good
TTITLE16=Frankie Ford - I Want To Be Your Man
TTITLE17=Earl King - Little Girl
TTITLE18=Supremes - Honey Honey
TTITLE19=Bobby Marchan - Chickee Wah-Wah
TTITLE20=Jimmy Clanton and His Rockets - I Trusted You
TTITLE21=Big Boy Myles - New Orleans
TTITLE22=Joe and Ann - Curiosity
TTITLE23=Huey and Curley - The Second Line
EXTD=
EXTT0=
EXTT1=
EXTT2=
EXTT3=
EXTT4=
EXTT5=
EXTT6=
EXTT7=
EXTT8=
EXTT9=
EXTT10=
EXTT11=
EXTT12=
EXTT13=
EXTT14=
EXTT15=
EXTT16=
EXTT17=
EXTT18=
EXTT19=
EXTT20=
EXTT21=
EXTT22=
EXTT23=
PLAYORDER=
